<svg viewBox="0 0 105 95" xmlns="http://www.w3.org/2000/svg">
  <path d="M 10 25 Q 10 5 30 5 L 75 5 Q 95 5 95 25 L 95 55 Q 95 75 75 75 L 45 75 L 28 90 L 32 75 Q 10 75 10 55 Z" fill="#2C3E5C"/>
  <circle cx="52" cy="40" r="6" fill="#FF5A4E"/>
  <line x1="52" y1="20" x2="52" y2="14" stroke="#F5EFE6" stroke-width="1.5" stroke-linecap="round"/>
  <line x1="52" y1="60" x2="52" y2="66" stroke="#F5EFE6" stroke-width="1.5" stroke-linecap="round"/>
  <line x1="32" y1="40" x2="26" y2="40" stroke="#F5EFE6" stroke-width="1.5" stroke-linecap="round"/>
  <line x1="72" y1="40" x2="78" y2="40" stroke="#F5EFE6" stroke-width="1.5" stroke-linecap="round"/>
  <line x1="38" y1="26" x2="34" y2="22" stroke="#F5EFE6" stroke-width="1.5" stroke-linecap="round"/>
  <line x1="66" y1="26" x2="70" y2="22" stroke="#F5EFE6" stroke-width="1.5" stroke-linecap="round"/>
  <line x1="38" y1="54" x2="34" y2="58" stroke="#F5EFE6" stroke-width="1.5" stroke-linecap="round"/>
  <line x1="66" y1="54" x2="70" y2="58" stroke="#F5EFE6" stroke-width="1.5" stroke-linecap="round"/>
</svg>
